<svg width="512" height="512" viewBox="0 0 512 512" fill="none" xmlns="http://www.w3.org/2000/svg">
<g clip-path="url(#clip0_1_21)">
<mask id="mask0_1_21" style="mask-type:luminance" maskUnits="userSpaceOnUse" x="0" y="0" width="512" height="512">
<path d="M512 0H0V512H512V0Z" fill="white"/>
</mask>
<g mask="url(#mask0_1_21)">
</g>
<g clip-path="url(#clip1_1_21)">
<path d="M218.5 289.333C225.404 289.333 231 294.93 231 301.833V343.5C231 350.404 225.404 356 218.5 356C211.596 356 206 350.404 206 343.5V301.833C206 294.93 211.596 289.333 218.5 289.333Z" fill="#AFFFA8"/>
<path d="M293.5 289.333C300.404 289.333 306 294.93 306 301.833V343.5C306 350.404 300.404 356 293.5 356C286.596 356 281 350.404 281 343.5V301.833C281 294.93 286.596 289.333 293.5 289.333Z" fill="#AFFFA8"/>
<path fill-rule="evenodd" clip-rule="evenodd" d="M256 89.3333C219.104 89.3333 185.2 100.283 160.22 118.602C157.943 120.271 155.736 122.007 153.603 123.806C143.865 127.708 135.654 132.9 129.037 139.667C114.869 154.156 110.167 173.614 110.167 195.797C110.167 201.937 110.393 208.014 111.036 213.906L100.481 238.534L99.7623 238.893C72.9418 252.304 56 279.716 56 309.702L56 326.833C56 335.65 61.1575 343.277 65.4076 348.377C70.082 353.986 76.0196 359.273 81.5246 363.678C87.1029 368.14 92.6261 372.003 96.7225 374.734C102.844 378.815 109.152 382.577 115.645 386.04C123.315 390.131 134.356 395.547 148.012 400.955C175.245 411.74 213.312 422.667 256 422.667C298.688 422.667 336.755 411.74 363.988 400.955C377.644 395.547 388.685 390.131 396.355 386.04C402.848 382.577 409.157 378.815 415.278 374.734C419.374 372.003 424.897 368.14 430.475 363.678C435.98 359.273 441.918 353.986 446.592 348.377C450.843 343.277 456 335.65 456 326.833L456 309.702C456 279.716 439.058 252.304 412.238 238.893L411.519 238.534L400.964 213.906C401.607 208.014 401.833 201.936 401.833 195.797C401.833 173.614 397.131 154.156 382.963 139.667C376.346 132.9 368.135 127.708 358.397 123.806C356.264 122.007 354.056 120.271 351.78 118.602C326.8 100.283 292.896 89.3333 256 89.3333ZM122.667 250.232L123.308 248.737C124.068 249.745 124.871 250.73 125.718 251.69C138.937 266.683 160.006 272.667 188.755 272.667C215.243 272.667 234.391 263.591 247.219 247.805C249.403 245.117 251.365 242.281 253.129 239.326C254.087 239.331 255.044 239.333 256 239.333C256.956 239.333 257.913 239.331 258.871 239.326C260.635 242.281 262.597 245.117 264.781 247.805C277.609 263.591 296.757 272.667 323.245 272.667C351.994 272.667 373.063 266.683 386.282 251.69C387.129 250.729 387.932 249.745 388.692 248.737L389.333 250.232V361.381C382.719 365.113 370.693 371.411 354.783 377.712C329.411 387.76 294.562 397.667 256 397.667C217.438 397.667 182.589 387.76 157.217 377.712C141.307 371.411 129.281 365.113 122.667 361.381V250.232ZM227.817 232.039C225.989 234.289 223.905 236.384 221.497 238.263C214.196 243.959 203.917 247.667 188.755 247.667C162.527 247.667 150.552 242.054 144.471 235.157C141.273 231.53 138.947 226.736 137.421 220.326C135.894 213.915 135.167 205.888 135.167 195.797C135.167 176.801 139.212 165.02 146.911 157.145C154.864 149.012 168.892 142.783 193.988 140.067C218.759 137.387 230.511 142.373 236.198 148.881L236.339 149.044C240.735 154.183 243.48 162.486 243.502 175.176L243.501 175.705C243.483 180.08 243.145 184.968 242.446 190.419C242.304 191.52 242.155 192.608 241.996 193.682C239.615 209.798 235.237 222.908 227.817 232.039ZM269.554 190.419C268.845 184.893 268.508 179.946 268.498 175.525L268.498 175.175C268.52 162.351 271.324 154.006 275.802 148.881C281.488 142.373 293.241 137.387 318.012 140.067C343.108 142.783 357.136 149.012 365.089 157.145C372.788 165.02 376.833 176.801 376.833 195.797C376.833 215.979 373.925 227.903 367.529 235.157C361.448 242.054 349.473 247.667 323.245 247.667C303.081 247.667 291.553 241.109 284.183 232.039C276.268 222.3 271.815 208.033 269.554 190.419Z" fill="#AFFFA8"/>
</g>
</g>
<defs>
<clipPath id="clip0_1_21">
<rect width="512" height="512" fill="white"/>
</clipPath>
<clipPath id="clip1_1_21">
<rect width="400" height="400" fill="white" transform="translate(56 56)"/>
</clipPath>
</defs>
</svg>
