<svg width="164" height="164" viewBox="0 0 164 164" fill="none" xmlns="http://www.w3.org/2000/svg">
<g clip-path="url(#clip0_11_68)">
<path d="M66.625 95.6667C69.4555 95.6667 71.75 97.9612 71.75 100.792V117.875C71.75 120.705 69.4555 123 66.625 123C63.7945 123 61.5 120.705 61.5 117.875V100.792C61.5 97.9612 63.7945 95.6667 66.625 95.6667Z" fill="#AFFFA8"/>
<path d="M97.375 95.6667C100.205 95.6667 102.5 97.9612 102.5 100.792V117.875C102.5 120.705 100.205 123 97.375 123C94.5445 123 92.25 120.705 92.25 117.875V100.792C92.25 97.9612 94.5445 95.6667 97.375 95.6667Z" fill="#AFFFA8"/>
<path fill-rule="evenodd" clip-rule="evenodd" d="M82 13.6667C66.8726 13.6667 52.9718 18.1561 42.73 25.6668C41.7968 26.3511 40.8916 27.0628 40.0171 27.8005C36.0246 29.4005 32.6581 31.5288 29.945 34.3035C24.1361 40.2442 22.2083 48.2217 22.2083 57.3166C22.2083 59.834 22.3011 62.3256 22.5648 64.7414L18.2372 74.839L17.9426 74.9863C6.94616 80.4845 0 91.7237 0 104.018L1.30336e-05 111.042C0 114.657 2.11458 117.784 3.85713 119.875C5.7736 122.174 8.20803 124.342 10.4651 126.148C12.7522 127.977 15.0167 129.561 16.6962 130.681C19.2058 132.354 21.7923 133.897 24.4545 135.316C27.5992 136.994 32.1261 139.214 37.7249 141.432C48.8904 145.854 64.4978 150.333 82 150.333C99.5023 150.333 115.11 145.854 126.275 141.432C131.874 139.214 136.401 136.994 139.546 135.316C142.208 133.897 144.794 132.354 147.304 130.681C148.983 129.561 151.248 127.977 153.535 126.148C155.792 124.342 158.226 122.174 160.143 119.875C161.885 117.784 164 114.657 164 111.042L164 104.018C164 91.7237 157.054 80.4845 146.057 74.9863L145.763 74.839L141.435 64.7413C141.699 62.3256 141.792 59.834 141.792 57.3166C141.792 48.2217 139.864 40.2442 134.055 34.3035C131.342 31.5288 127.975 29.4005 123.983 27.8005C123.108 27.0628 122.203 26.3511 121.27 25.6668C111.028 18.1561 97.1274 13.6667 82 13.6667ZM27.3333 79.6353L27.5961 79.0221C27.9081 79.4353 28.2372 79.8391 28.5845 80.233C34.0042 86.3801 42.6426 88.8334 54.4297 88.8334C65.2895 88.8334 73.1405 85.1124 78.3999 78.64C79.2953 77.5381 80.0998 76.3753 80.8231 75.1637C81.2155 75.1657 81.6079 75.1667 82 75.1667C82.3922 75.1667 82.7845 75.1657 83.1769 75.1637C83.9002 76.3753 84.7047 77.5381 85.6001 78.64C90.8595 85.1124 98.7105 88.8334 109.57 88.8334C121.357 88.8334 129.996 86.3801 135.416 80.233C135.763 79.8391 136.092 79.4353 136.404 79.0221L136.667 79.6353V125.206C133.955 126.736 129.024 129.318 122.501 131.902C112.099 136.021 97.8103 140.083 82 140.083C66.1898 140.083 51.9013 136.021 41.4991 131.902C34.9759 129.318 30.0452 126.737 27.3333 125.206V79.6353ZM70.4451 72.1759C69.6956 73.0984 68.841 73.9575 67.8536 74.7278C64.8605 77.0631 60.646 78.5834 54.4297 78.5834C43.676 78.5834 38.7662 76.2823 36.2729 73.4544C34.962 71.9674 34.0083 70.0018 33.3824 67.3736C32.7565 64.7452 32.4583 61.4542 32.4583 57.3166C32.4583 49.5283 34.1168 44.6981 37.2737 41.4696C40.5343 38.135 46.2857 35.5812 56.575 34.4677C66.731 33.3686 71.5497 35.4129 73.8812 38.0812L73.9392 38.1482C75.7415 40.2549 76.8667 43.6594 76.8757 48.8621L76.8754 49.079C76.8679 50.8728 76.7295 52.8771 76.4427 55.1118C76.3848 55.5631 76.3234 56.0091 76.2583 56.4496C75.2821 63.0573 73.4871 68.4325 70.4451 72.1759ZM87.5573 55.1118C87.2665 52.8463 87.1283 50.8177 87.1243 49.0052V48.8619C87.1334 43.6038 88.2827 40.1825 90.1187 38.0812C92.4503 35.4129 97.269 33.3686 107.425 34.4677C117.714 35.5812 123.466 38.135 126.726 41.4696C129.883 44.6981 131.542 49.5283 131.542 57.3166C131.542 65.5915 130.349 70.4804 127.727 73.4544C125.234 76.2823 120.324 78.5834 109.57 78.5834C101.303 78.5834 96.5766 75.8946 93.5548 72.1759C90.3101 68.1829 88.4841 62.3334 87.5573 55.1118Z" fill="#AFFFA8"/>
</g>
<defs>
<clipPath id="clip0_11_68">
<rect width="164" height="164" fill="white"/>
</clipPath>
</defs>
</svg>
