<svg width="255" height="255" viewBox="0 0 255 255" fill="none" xmlns="http://www.w3.org/2000/svg">
<g clip-path="url(#clip0_11_51)">
<path d="M103.594 148.75C107.995 148.75 111.562 152.318 111.562 156.719V183.281C111.562 187.682 107.995 191.25 103.594 191.25C99.1927 191.25 95.625 187.682 95.625 183.281V156.719C95.625 152.318 99.1927 148.75 103.594 148.75Z" fill="#AFFFA8"/>
<path d="M151.406 148.75C155.807 148.75 159.375 152.318 159.375 156.719V183.281C159.375 187.682 155.807 191.25 151.406 191.25C147.005 191.25 143.438 187.682 143.438 183.281V156.719C143.438 152.318 147.005 148.75 151.406 148.75Z" fill="#AFFFA8"/>
<path fill-rule="evenodd" clip-rule="evenodd" d="M127.5 21.25C103.979 21.25 82.3647 28.2305 66.44 39.9087C64.989 40.9728 63.5815 42.0793 62.2217 43.2264C56.0139 45.7141 50.7794 49.0235 46.5608 53.3378C37.5287 62.5748 34.5312 74.9788 34.5312 89.1203C34.5312 93.0346 34.6756 96.9087 35.0855 100.665L28.3567 116.365L27.8985 116.595C10.8004 125.144 0 142.619 0 161.735L2.02656e-05 172.656C0 178.277 3.28791 183.139 5.99737 186.391C8.97725 189.966 12.7625 193.337 16.272 196.144C19.8281 198.989 23.3492 201.452 25.9606 203.193C29.8627 205.794 33.8844 208.193 38.0237 210.4C42.9134 213.008 49.9521 216.461 58.6576 219.909C76.0186 226.785 100.286 233.75 127.5 233.75C154.714 233.75 178.981 226.785 196.342 219.909C205.048 216.461 212.087 213.008 216.976 210.4C221.116 208.193 225.137 205.794 229.039 203.193C231.651 201.452 235.172 198.989 238.728 196.144C242.238 193.337 246.023 189.966 249.003 186.391C251.712 183.139 255 178.277 255 172.656L255 161.735C255 142.619 244.2 125.144 227.102 116.595L226.643 116.365L219.915 100.665C220.324 96.9087 220.469 93.0345 220.469 89.1203C220.469 74.9788 217.471 62.5748 208.439 53.3378C204.221 49.0235 198.986 45.7141 192.778 43.2264C191.419 42.0793 190.011 40.9728 188.56 39.9087C172.635 28.2305 151.021 21.25 127.5 21.25ZM42.5 123.823L42.9086 122.87C43.3936 123.512 43.9054 124.14 44.4454 124.753C52.8723 134.311 66.3041 138.125 84.6315 138.125C101.517 138.125 113.724 132.339 121.902 122.276C123.295 120.562 124.545 118.754 125.67 116.87C126.28 116.873 126.89 116.875 127.5 116.875C128.11 116.875 128.72 116.873 129.33 116.87C130.455 118.754 131.705 120.562 133.098 122.276C141.276 132.339 153.483 138.125 170.368 138.125C188.696 138.125 202.128 134.311 210.555 124.753C211.095 124.14 211.606 123.512 212.091 122.87L212.5 123.823V194.68C208.283 197.06 200.617 201.074 190.474 205.091C174.3 211.497 152.083 217.813 127.5 217.813C102.917 217.813 80.7002 211.497 64.526 205.091C54.3833 201.074 46.7167 197.06 42.5 194.68V123.823ZM109.534 112.225C108.368 113.659 107.039 114.995 105.504 116.193C100.85 119.824 94.2972 122.188 84.6315 122.188C67.9108 122.188 60.2768 118.61 56.4 114.213C54.3616 111.901 52.8788 108.844 51.9056 104.758C50.9324 100.671 50.4688 95.5538 50.4688 89.1203C50.4688 77.0104 53.0475 69.5 57.956 64.4802C63.026 59.2952 71.9686 55.3244 87.9672 53.593C103.759 51.884 111.251 55.0627 114.876 59.2115L114.966 59.3157C117.769 62.5915 119.518 67.8851 119.532 75.9746L119.532 76.3119C119.52 79.1009 119.305 82.2173 118.859 85.6921C118.769 86.3939 118.674 87.0873 118.572 87.7723C117.055 98.0464 114.263 106.404 109.534 112.225ZM136.141 85.6921C135.689 82.1696 135.474 79.0154 135.468 76.1971L135.468 75.9743C135.482 67.7986 137.269 62.4788 140.124 59.2115C143.749 55.0627 151.241 51.884 167.033 53.593C183.031 55.3244 191.974 59.2952 197.044 64.4802C201.952 69.5 204.531 77.0104 204.531 89.1203C204.531 101.987 202.677 109.588 198.6 114.213C194.723 118.61 187.089 122.188 170.368 122.188C157.514 122.188 150.165 118.007 145.466 112.225C140.421 106.016 137.582 96.9207 136.141 85.6921Z" fill="#AFFFA8"/>
</g>
<defs>
<clipPath id="clip0_11_51">
<rect width="255" height="255" fill="white"/>
</clipPath>
</defs>
</svg>
