<svg width="512" height="512" viewBox="0 0 512 512" fill="none" xmlns="http://www.w3.org/2000/svg">
<g clip-path="url(#clip0_11_38)">
<path d="M208 298.667C216.837 298.667 224 305.83 224 314.667V368C224 376.837 216.837 384 208 384C199.163 384 192 376.837 192 368V314.667C192 305.83 199.163 298.667 208 298.667Z" fill="#AFFFA8"/>
<path d="M304 298.667C312.837 298.667 320 305.83 320 314.667V368C320 376.837 312.837 384 304 384C295.163 384 288 376.837 288 368V314.667C288 305.83 295.163 298.667 304 298.667Z" fill="#AFFFA8"/>
<path fill-rule="evenodd" clip-rule="evenodd" d="M256 42.6666C208.773 42.6666 165.375 56.6824 133.401 80.1303C130.488 82.2668 127.662 84.4887 124.931 86.7918C112.467 91.7867 101.957 98.4314 93.4868 107.094C75.3518 125.64 69.3333 150.546 69.3333 178.94C69.3333 186.799 69.6231 194.577 70.4462 202.119L56.9358 233.644L56.0158 234.104C21.6856 251.269 0 286.357 0 324.739L4.06902e-05 346.667C0 357.952 6.6016 367.715 12.0418 374.243C18.0249 381.423 25.6251 388.19 32.6715 393.827C39.8117 399.539 46.8815 404.484 52.1248 407.979C59.9597 413.203 68.0346 418.018 76.3456 422.451C86.1634 427.687 100.296 434.62 117.775 441.543C152.633 455.348 201.359 469.333 256 469.333C310.641 469.333 359.367 455.348 394.225 441.543C411.704 434.62 425.837 427.687 435.654 422.451C443.965 418.018 452.04 413.203 459.875 407.979C465.119 404.484 472.188 399.539 479.329 393.827C486.375 388.19 493.975 381.423 499.958 374.243C505.398 367.715 512 357.952 512 346.667L512 324.739C512 286.357 490.315 251.269 455.984 234.104L455.064 233.644L441.554 202.119C442.377 194.577 442.667 186.799 442.667 178.94C442.667 150.546 436.648 125.64 418.513 107.094C410.043 98.4314 399.533 91.7867 387.069 86.7918C384.338 84.4886 381.512 82.2668 378.599 80.1303C346.624 56.6824 303.227 42.6666 256 42.6666ZM85.3334 248.617L86.1538 246.703C87.1276 247.993 88.1552 249.254 89.2393 250.483C106.159 269.674 133.128 277.333 169.927 277.333C203.83 277.333 228.341 265.717 244.761 245.51C247.556 242.07 250.068 238.44 252.326 234.657C253.551 234.664 254.776 234.667 256 234.667C257.224 234.667 258.449 234.664 259.674 234.657C261.932 238.44 264.444 242.07 267.239 245.51C283.659 265.717 308.169 277.333 342.073 277.333C378.872 277.333 405.841 269.674 422.761 250.483C423.845 249.254 424.872 247.993 425.846 246.703L426.667 248.617V390.887C418.2 395.665 402.807 403.726 382.442 411.791C349.967 424.652 305.359 437.333 256 437.333C206.641 437.333 162.033 424.652 129.558 411.791C109.193 403.726 93.7998 395.665 85.3334 390.887V248.617ZM219.926 225.33C217.586 228.209 214.918 230.891 211.836 233.297C202.491 240.587 189.334 245.333 169.927 245.333C136.354 245.333 121.026 238.15 113.242 229.321C109.15 224.679 106.172 218.542 104.218 210.337C102.264 202.131 101.333 191.857 101.333 178.94C101.333 154.625 106.511 139.545 116.367 129.466C126.546 119.055 144.502 111.083 176.624 107.606C208.331 104.175 223.375 110.557 230.654 118.887L230.834 119.097C236.461 125.674 239.974 136.303 240.002 152.545L240.001 153.222C239.978 158.822 239.546 165.079 238.65 172.056C238.47 173.465 238.278 174.858 238.075 176.233C235.027 196.862 229.423 213.643 219.926 225.33ZM273.349 172.056C272.442 164.984 272.01 158.65 271.998 152.992L271.998 152.545C272.026 136.129 275.614 125.448 281.346 118.887C288.625 110.557 303.669 104.175 335.376 107.606C367.498 111.083 385.454 119.055 395.633 129.466C405.489 139.545 410.667 154.625 410.667 178.94C410.667 204.773 406.943 220.036 398.758 229.321C390.974 238.15 375.646 245.333 342.073 245.333C316.264 245.333 301.507 236.939 292.074 225.33C281.944 212.864 276.243 194.602 273.349 172.056Z" fill="#AFFFA8"/>
</g>
<defs>
<clipPath id="clip0_11_38">
<rect width="512" height="512" fill="white"/>
</clipPath>
</defs>
</svg>
